<svg width="119" height="99" viewBox="0 0 119 99" fill="none" xmlns="http://www.w3.org/2000/svg">
<path d="M30.2813 39.508C31.8523 44.744 33.7541 49.6551 35.8212 54.3924C39.3766 62.8773 41.7745 67.3653 45.0894 72.9338C49.1409 79.5827 53.6134 87.1533 60.9723 92.0569C66.3468 95.6307 72.8864 97.4591 79.1705 97.4591C88.0252 97.4591 95.6322 93.5529 100.518 88.9742C105.314 84.4862 111.523 75.8351 111.523 58.956C111.523 53.1382 114.086 48.144 115.988 44.1547C115.988 44.0716 116.07 43.9053 116.236 43.5729C116.98 41.9107 117.889 39.7498 117.889 37.5889C117.889 36.0098 117.476 34.1813 116.401 32.6022C114.747 29.7764 111.771 28.7791 109.035 28.7791C102.668 28.7791 98.2781 33.2671 96.0456 37.8458L95.3015 39.3418C94.3919 38.012 93.4824 36.5991 92.7382 35.3524C90.4231 31.28 89.1001 28.5373 87.9425 25.0391C87.033 22.2964 86.2889 19.1382 85.7927 16.5542C84.3871 8.40178 82.0719 5.74222 78.2609 4.74489C75.4497 3.99689 72.1423 4.57867 69.7369 6.15778C68.0907 2.41778 65.2795 0.755554 61.5511 0.755554C56.2593 0.755554 51.4561 4.24622 51.4561 10.1547C51.4561 10.9027 51.5388 11.6507 51.6215 12.5649C50.96 12.3987 50.2158 12.3156 49.4717 12.3156C43.7664 12.3156 39.542 16.3049 39.542 21.7147C39.542 22.9613 39.7074 24.3742 40.1208 26.0364C39.6247 25.9533 39.1286 25.9533 38.6325 25.9533C35.8212 26.1196 33.258 27.2 31.4314 29.444C29.6199 31.6049 28.8757 34.9293 30.2813 39.508Z" fill="#1F1F1A"/>
<path d="M34.9944 38.012C34.2502 35.6018 34.3329 33.7733 35.2424 32.6098C36.152 31.5293 37.3922 31.0307 38.8805 30.9475C41.4438 30.8644 42.436 32.6929 43.9243 37.4302C44.8338 40.4222 46.6529 44.7515 47.7278 47.1618C49.1334 50.0707 51.1179 53.9769 52.0274 55.3142C52.7716 56.4778 53.433 56.8102 54.1772 56.8102C55.5001 56.8102 56.4924 56.0622 56.4924 54.7324C56.4924 53.9844 55.7482 52.7378 55.3348 51.9898C54.5906 50.5769 53.0196 47.7511 51.9447 45.3409C50.7871 42.6813 49.4642 39.3569 48.3893 36.3573C47.7278 34.612 46.9836 32.1187 46.2395 29.6253C45.0819 25.8022 44.5031 23.4751 44.5031 21.7222C44.5031 19.0627 46.4875 17.3173 49.4642 17.3173C51.614 17.3173 53.0196 18.3978 53.9291 22.304C54.6733 25.8778 55.9963 31.7031 57.898 36.2742C59.1383 39.2662 60.9573 43.2631 62.0322 45.2578C62.6937 46.4213 63.4379 47.4187 63.4379 47.8342C63.4379 48.416 62.363 49.3302 61.4534 50.5769C60.8746 51.3249 60.6266 51.8235 60.6266 52.4053C60.6266 52.904 60.9573 53.4027 61.4534 54.0675C61.9495 54.7324 62.4457 55.3973 63.0244 55.3973C63.4379 55.3973 63.6859 55.2311 63.934 54.8987C66.4972 51.6573 69.3085 49.4133 72.5407 47.5773C76.3442 45.4164 80.2379 44.336 83.2972 43.6711C84.7855 43.3387 85.1989 43.0062 85.1989 42.1751C85.1989 41.1778 84.4548 40.596 83.4626 40.5129C82.7184 40.4298 82.0569 40.5129 80.8993 40.596C80.0725 40.6791 79.6591 40.2635 79.163 39.1831C77.6746 36.0249 74.7807 30.6982 73.0443 23.8831C72.3001 20.9742 71.6387 17.8991 71.2252 13.9022C70.9772 12.0738 71.3079 11.4089 72.2175 10.5778C73.375 9.58044 75.4422 9.16488 77.0132 9.58044C78.9149 10.0791 79.9071 11.5751 80.8993 17.4004C81.3954 20.1431 82.2223 23.6338 83.2145 26.6333C84.4548 30.4564 86.0258 33.6222 88.4236 37.8609C89.7466 40.188 91.4003 42.5982 93.1367 44.9329C92.8059 45.9302 92.2271 46.5951 90.3254 48.1742C88.4236 49.7533 86.5219 51.4155 84.7855 54.4907C83.5452 56.7347 82.9665 59.228 82.9665 60.8902C82.9665 62.4693 83.2972 62.8018 84.2894 62.8018C86.0258 62.8018 87.4314 62.4693 87.5141 61.7213C87.9275 58.7293 88.4236 56.8178 90.0773 54.5662C91.0695 53.3195 92.8059 51.7404 94.2116 50.4938C96.8575 48.3329 97.767 47.0862 98.6765 44.0111C99.0899 42.5982 99.5861 41.2684 100.248 40.0218C101.819 37.1129 104.63 33.7884 109.02 33.7884C110.425 33.7884 111.583 34.204 112.327 35.3675C112.74 36.0324 112.906 36.9467 112.906 37.6115C112.906 39.1075 111.831 41.1853 111.335 42.1827C109.516 46.0889 106.539 52.0804 106.539 58.9787C106.539 74.0293 101.247 81.5169 97.1055 85.34C93.054 89.1631 86.6797 92.4951 79.1554 92.4951C73.781 92.4951 68.2336 90.916 63.6859 87.924C57.3192 83.6853 53.3428 77.0289 49.2913 70.38C46.0666 64.9778 43.8341 60.7315 40.3538 52.5035C38.392 47.736 36.5654 43.0818 34.9944 38.012Z" fill="#FFE450"/>
<path d="M56.2593 10.1547C56.2593 6.99645 59.1533 5.74979 61.5512 5.74979C64.1144 5.74979 65.0239 6.99645 65.6854 9.65601C66.2642 11.8169 66.5122 13.8116 66.7603 16.1387C67.091 18.4658 68.2486 23.7925 68.5793 25.1222C69.8196 29.6933 72.3001 35.1031 75.2768 41.5858C73.5404 42.1676 71.2252 43.1649 69.6542 43.996C67.6698 45.0765 67.2564 45.0765 66.4295 43.4973C64.6932 40.256 63.4529 37.8458 62.378 35.0125C61.4685 32.6853 60.5589 30.0258 59.8148 26.9431C58.5745 21.7071 58.4091 20.2111 57.4169 17.7933C56.8381 15.3076 56.2593 12.2325 56.2593 10.1547Z" fill="#FFE450"/>
<path d="M26.6432 65.824C24.8918 66.912 15.6086 71.8004 13.5114 72.5786C12.0155 73.1378 10.3919 73.0018 9.43728 70.1609C8.26467 66.6475 9.91084 65.8164 12.2561 64.9022C14.3307 64.0938 22.9374 60.9658 24.9369 60.4218C26.3425 60.044 27.3197 60.52 27.9962 62.22C28.7404 64.0862 28.2292 64.8342 26.6432 65.824Z" fill="#1F1F1A"/>
<path d="M18.9911 46.0209C16.4955 46.0889 6.12989 45.6431 3.76211 45.4089C1.70251 45.2049 0.868146 44.2907 1.09365 41.2911C1.33419 38.0724 2.58197 37.876 4.60398 38.0724C6.94922 38.2991 17.811 40.0747 19.5398 40.6111C21.3288 41.1702 21.5769 41.9862 21.3589 43.5578C21.0808 45.5978 20.1637 45.9831 18.9911 46.0209Z" fill="#1F1F1A"/>
<path d="M20.2765 24.9258C17.4201 24.0191 8.94121 18.8587 6.73128 17.5289C4.73181 16.32 4.47624 15.232 5.86685 12.58C7.0996 10.2378 8.46765 9.82979 10.4972 10.8876C12.8499 12.1191 21.156 18.6169 22.742 19.9013C24.2754 21.1405 24.065 21.7827 23.2607 23.3769C22.4564 24.9711 21.7047 25.3791 20.2765 24.9258Z" fill="#1F1F1A"/>
</svg>
