<svg width="237" height="170" viewBox="0 0 237 170" fill="none" xmlns="http://www.w3.org/2000/svg">
<path d="M76.2813 39.508C77.8524 44.744 79.7541 49.6551 81.8212 54.3924C85.3767 62.8773 87.7745 67.3653 91.0894 72.9338C95.1409 79.5827 99.6134 87.1533 106.972 92.0569C112.347 95.6307 118.886 97.4591 125.17 97.4591C134.025 97.4591 141.632 93.5529 146.518 88.9742C151.314 84.4862 157.523 75.8351 157.523 58.956C157.523 53.1382 160.086 48.144 161.988 44.1547C161.988 44.0716 162.07 43.9053 162.236 43.5729C162.98 41.9107 163.889 39.7498 163.889 37.5889C163.889 36.0098 163.476 34.1813 162.401 32.6022C160.747 29.7764 157.771 28.7791 155.035 28.7791C148.668 28.7791 144.278 33.2671 142.046 37.8458L141.301 39.3418C140.392 38.012 139.482 36.5991 138.738 35.3524C136.423 31.28 135.1 28.5373 133.943 25.0391C133.033 22.2964 132.289 19.1382 131.793 16.5542C130.387 8.40178 128.072 5.74222 124.261 4.74489C121.45 3.99689 118.142 4.57867 115.737 6.15778C114.091 2.41778 111.279 0.755554 107.551 0.755554C102.259 0.755554 97.4561 4.24622 97.4561 10.1547C97.4561 10.9027 97.5388 11.6507 97.6215 12.5649C96.96 12.3987 96.2158 12.3156 95.4717 12.3156C89.7665 12.3156 85.542 16.3049 85.542 21.7147C85.542 22.9613 85.7074 24.3742 86.1208 26.0364C85.6247 25.9533 85.1286 25.9533 84.6325 25.9533C81.8212 26.1196 79.258 27.2 77.4314 29.444C75.6199 31.6049 74.8757 34.9293 76.2813 39.508Z" fill="#1F1F1A"/>
<path d="M80.9944 38.012C80.2502 35.6018 80.3329 33.7733 81.2424 32.6098C82.152 31.5293 83.3922 31.0307 84.8805 30.9475C87.4438 30.8644 88.436 32.6929 89.9243 37.4302C90.8338 40.4222 92.6529 44.7515 93.7278 47.1618C95.1334 50.0707 97.1179 53.9769 98.0274 55.3142C98.7716 56.4778 99.433 56.8102 100.177 56.8102C101.5 56.8102 102.492 56.0622 102.492 54.7324C102.492 53.9844 101.748 52.7378 101.335 51.9898C100.591 50.5769 99.0196 47.7511 97.9447 45.3409C96.7871 42.6813 95.4642 39.3569 94.3893 36.3573C93.7278 34.612 92.9836 32.1187 92.2395 29.6253C91.0819 25.8022 90.5031 23.4751 90.5031 21.7222C90.5031 19.0627 92.4875 17.3173 95.4642 17.3173C97.614 17.3173 99.0196 18.3978 99.9291 22.304C100.673 25.8778 101.996 31.7031 103.898 36.2742C105.138 39.2662 106.957 43.2631 108.032 45.2578C108.694 46.4213 109.438 47.4187 109.438 47.8342C109.438 48.416 108.363 49.3302 107.453 50.5769C106.875 51.3249 106.627 51.8235 106.627 52.4053C106.627 52.904 106.957 53.4027 107.453 54.0675C107.95 54.7324 108.446 55.3973 109.024 55.3973C109.438 55.3973 109.686 55.2311 109.934 54.8987C112.497 51.6573 115.308 49.4133 118.541 47.5773C122.344 45.4164 126.238 44.336 129.297 43.6711C130.786 43.3387 131.199 43.0062 131.199 42.1751C131.199 41.1778 130.455 40.596 129.463 40.5129C128.718 40.4298 128.057 40.5129 126.899 40.596C126.072 40.6791 125.659 40.2635 125.163 39.1831C123.675 36.0249 120.781 30.6982 119.044 23.8831C118.3 20.9742 117.639 17.8991 117.225 13.9022C116.977 12.0738 117.308 11.4089 118.217 10.5778C119.375 9.58044 121.442 9.16488 123.013 9.58044C124.915 10.0791 125.907 11.5751 126.899 17.4004C127.395 20.1431 128.222 23.6338 129.215 26.6333C130.455 30.4564 132.026 33.6222 134.424 37.8609C135.747 40.188 137.4 42.5982 139.137 44.9329C138.806 45.9302 138.227 46.5951 136.325 48.1742C134.424 49.7533 132.522 51.4155 130.786 54.4907C129.545 56.7347 128.966 59.228 128.966 60.8902C128.966 62.4693 129.297 62.8018 130.289 62.8018C132.026 62.8018 133.431 62.4693 133.514 61.7213C133.928 58.7293 134.424 56.8178 136.077 54.5662C137.07 53.3195 138.806 51.7404 140.212 50.4938C142.857 48.3329 143.767 47.0862 144.677 44.0111C145.09 42.5982 145.586 41.2684 146.248 40.0218C147.819 37.1129 150.63 33.7884 155.02 33.7884C156.425 33.7884 157.583 34.204 158.327 35.3675C158.74 36.0324 158.906 36.9467 158.906 37.6115C158.906 39.1075 157.831 41.1853 157.335 42.1827C155.516 46.0889 152.539 52.0804 152.539 58.9787C152.539 74.0293 147.247 81.5169 143.106 85.34C139.054 89.1631 132.68 92.4951 125.155 92.4951C119.781 92.4951 114.234 90.916 109.686 87.924C103.319 83.6853 99.3428 77.0289 95.2913 70.38C92.0666 64.9778 89.8341 60.7315 86.3538 52.5035C84.392 47.736 82.5654 43.0818 80.9944 38.012Z" fill="#FFE450"/>
<path d="M102.259 10.1546C102.259 6.99642 105.153 5.74976 107.551 5.74976C110.114 5.74976 111.024 6.99642 111.685 9.65598C112.264 11.8169 112.512 13.8115 112.76 16.1386C113.091 18.4658 114.249 23.7924 114.579 25.1222C115.82 29.6933 118.3 35.1031 121.277 41.5858C119.54 42.1675 117.225 43.1649 115.654 43.996C113.67 45.0764 113.256 45.0764 112.43 43.4973C110.693 40.256 109.453 37.8458 108.378 35.0124C107.468 32.6853 106.559 30.0258 105.815 26.9431C104.575 21.7071 104.409 20.2111 103.417 17.7933C102.838 15.3075 102.259 12.2324 102.259 10.1546Z" fill="#FFE450"/>
<path d="M72.6432 65.824C70.8918 66.912 61.6086 71.8005 59.5114 72.5787C58.0156 73.1378 56.3919 73.0018 55.4373 70.1609C54.2647 66.6476 55.9109 65.8165 58.2561 64.9022C60.3307 64.0938 68.9374 60.9658 70.9369 60.4218C72.3426 60.044 73.3197 60.52 73.9962 62.22C74.7404 64.0862 74.2293 64.8342 72.6432 65.824Z" fill="#1F1F1A"/>
<path d="M64.9911 46.0209C62.4956 46.0889 52.1299 45.6431 49.7621 45.4089C47.7025 45.2049 46.8682 44.2907 47.0937 41.2911C47.3342 38.0725 48.582 37.876 50.604 38.0725C52.9493 38.2991 63.811 40.0747 65.5399 40.6111C67.3289 41.1702 67.5769 41.9862 67.3589 43.5578C67.0808 45.5978 66.1638 45.9831 64.9911 46.0209Z" fill="#1F1F1A"/>
<path d="M66.2765 24.9258C63.4201 24.0191 54.9412 18.8586 52.7313 17.5289C50.7318 16.32 50.4763 15.232 51.8669 12.58C53.0996 10.2378 54.4677 9.82976 56.4972 10.8875C58.8499 12.1191 67.156 18.6169 68.742 19.9013C70.2754 21.1404 70.065 21.7826 69.2607 23.3769C68.4564 24.9711 67.7047 25.3791 66.2765 24.9258Z" fill="#1F1F1A"/>
<g filter="url(#filter0_d_312_25)">
<path d="M4.288 159.351C5.184 154.839 6.048 150.439 6.88 146.151C7.2 144.359 7.536 142.487 7.888 140.535C8.272 138.551 8.624 136.615 8.944 134.727C9.264 132.807 9.552 130.967 9.808 129.207C10.096 127.415 10.32 125.783 10.48 124.311C11.472 124.247 12.432 124.183 13.36 124.119C14.192 124.055 15.04 124.007 15.904 123.975C16.768 123.911 17.536 123.847 18.208 123.783C18.624 126.247 18.992 128.599 19.312 130.839C19.472 131.799 19.632 132.807 19.792 133.863C19.984 134.887 20.16 135.879 20.32 136.839C20.48 137.799 20.64 138.727 20.8 139.623C20.96 140.487 21.12 141.255 21.28 141.927C21.408 141.255 21.552 140.487 21.712 139.623C21.872 138.727 22.048 137.799 22.24 136.839C22.432 135.847 22.624 134.839 22.816 133.815C23.04 132.791 23.248 131.799 23.44 130.839C23.92 128.599 24.416 126.263 24.928 123.831L30.784 123.111C29.696 127.911 28.736 132.455 27.904 136.743C27.52 138.599 27.136 140.471 26.752 142.359C26.4 144.247 26.064 146.071 25.744 147.831C25.424 149.591 25.152 151.223 24.928 152.727C24.704 154.199 24.528 155.447 24.4 156.471C24.304 156.471 23.92 156.551 23.248 156.711C22.608 156.839 21.856 156.999 20.992 157.191C20.16 157.383 19.312 157.591 18.448 157.815C17.616 158.007 16.992 158.167 16.576 158.295C16.352 155.703 16.112 153.239 15.856 150.903C15.76 149.911 15.648 148.887 15.52 147.831C15.392 146.775 15.264 145.767 15.136 144.807C15.04 143.847 14.928 142.951 14.8 142.119C14.704 141.255 14.608 140.535 14.512 139.959C14.416 140.535 14.288 141.239 14.128 142.071C13.968 142.903 13.808 143.799 13.648 144.759C13.488 145.687 13.328 146.663 13.168 147.687C13.008 148.679 12.832 149.655 12.64 150.615C12.224 152.887 11.776 155.255 11.296 157.719L4.288 159.351ZM52.63 133.143C52.63 135.767 52.342 138.247 51.766 140.583C51.222 142.887 50.486 145.015 49.558 146.967C48.63 148.887 47.542 150.615 46.294 152.151C45.078 153.655 43.798 154.951 42.454 156.039C41.11 157.095 39.75 157.911 38.374 158.487C36.998 159.031 35.686 159.303 34.438 159.303C33.382 159.303 32.422 159.111 31.558 158.727C30.694 158.311 29.942 157.719 29.302 156.951C28.662 156.151 28.15 155.143 27.766 153.927C27.414 152.679 27.238 151.191 27.238 149.463C27.238 147.671 27.462 145.783 27.91 143.799C28.358 141.815 28.966 139.847 29.734 137.895C30.502 135.943 31.446 134.087 32.566 132.327C33.686 130.567 34.918 129.015 36.262 127.671C37.606 126.295 39.046 125.207 40.582 124.407C42.118 123.607 43.718 123.207 45.382 123.207C46.822 123.207 48.006 123.511 48.934 124.119C49.894 124.695 50.63 125.463 51.142 126.423C51.686 127.351 52.07 128.407 52.294 129.591C52.518 130.775 52.63 131.959 52.63 133.143ZM34.39 148.215C34.39 148.567 34.454 148.935 34.582 149.319C34.71 149.703 34.886 150.039 35.11 150.327C35.334 150.615 35.606 150.871 35.926 151.095C36.278 151.287 36.646 151.383 37.03 151.383C38.47 151.383 39.75 150.887 40.87 149.895C41.99 148.903 42.918 147.687 43.654 146.247C44.39 144.807 44.95 143.271 45.334 141.639C45.75 140.007 45.958 138.519 45.958 137.175C45.958 136.791 45.926 136.375 45.862 135.927C45.83 135.479 45.734 135.063 45.574 134.679C45.446 134.295 45.222 133.975 44.902 133.719C44.614 133.431 44.214 133.287 43.702 133.287C42.678 133.287 41.734 133.543 40.87 134.055C40.006 134.567 39.222 135.255 38.518 136.119C37.846 136.951 37.254 137.911 36.742 138.999C36.23 140.055 35.782 141.143 35.398 142.263C35.046 143.351 34.79 144.423 34.63 145.479C34.47 146.535 34.39 147.447 34.39 148.215ZM75.5339 140.823C75.3099 144.087 74.6699 146.935 73.6139 149.367C72.5579 151.767 71.2779 153.783 69.7739 155.415C68.3019 157.047 66.7019 158.263 64.9739 159.063C63.2779 159.863 61.6619 160.263 60.1259 160.263C58.9419 160.263 57.8059 160.007 56.7179 159.495C55.6619 158.983 54.7339 158.215 53.9339 157.191C53.1659 156.135 52.5579 154.823 52.1099 153.255C51.6619 151.687 51.4379 149.847 51.4379 147.735C51.4379 143.607 52.0299 140.007 53.2139 136.935C54.3979 133.863 55.8859 131.303 57.6779 129.255C59.5019 127.207 61.4379 125.687 63.4859 124.695C65.5659 123.703 67.5019 123.207 69.2939 123.207C70.5739 123.207 71.6779 123.431 72.6059 123.879C73.5659 124.327 74.3499 124.935 74.9579 125.703C75.5659 126.439 75.9979 127.319 76.2539 128.343C76.5419 129.335 76.6859 130.391 76.6859 131.511L70.1099 132.759C69.8219 131.479 69.4379 130.567 68.9579 130.023C68.4779 129.479 67.9339 129.207 67.3259 129.207C66.5259 129.207 65.6459 129.783 64.6859 130.935C63.7259 132.055 62.8299 133.511 61.9979 135.303C61.1659 137.095 60.4619 139.063 59.8859 141.207C59.3099 143.351 58.9899 145.463 58.9259 147.543C58.9259 149.527 59.2139 150.951 59.7899 151.815C60.3979 152.647 61.1659 153.063 62.0939 153.063C62.7339 153.063 63.3899 152.903 64.0619 152.583C64.7659 152.263 65.3899 151.815 65.9339 151.239C66.4779 150.631 66.9259 149.943 67.2779 149.175C67.6619 148.375 67.8699 147.511 67.9019 146.583L62.7659 147.351L63.6779 142.599C65.1819 142.407 66.6539 142.215 68.0939 142.023C69.3099 141.863 70.5899 141.671 71.9339 141.447C73.3099 141.223 74.5099 141.015 75.5339 140.823ZM91.039 158.151C90.239 158.279 89.359 158.423 88.399 158.583C87.439 158.743 86.575 158.887 85.807 159.015C85.935 157.959 86.063 156.919 86.191 155.895C86.287 154.999 86.367 154.103 86.431 153.207C86.527 152.311 86.607 151.543 86.671 150.903H82.495L80.575 157.815C79.871 157.911 79.039 158.023 78.079 158.151C77.119 158.247 76.223 158.343 75.391 158.439C74.367 158.567 73.359 158.695 72.367 158.823C73.647 154.567 74.911 150.375 76.159 146.247C76.671 144.519 77.199 142.711 77.743 140.823C78.319 138.935 78.879 137.063 79.423 135.207C79.999 133.319 80.543 131.511 81.055 129.783C81.567 128.055 82.015 126.471 82.399 125.031C84.575 124.871 86.783 124.679 89.023 124.455C91.295 124.231 93.503 123.927 95.647 123.543C95.551 124.567 95.439 125.847 95.311 127.383C95.215 128.887 95.119 130.535 95.023 132.327C94.927 134.119 94.831 135.991 94.735 137.943C94.639 139.895 94.543 141.815 94.447 143.703C94.287 148.119 94.111 152.807 93.919 157.767C92.959 157.927 91.999 158.055 91.039 158.151ZM83.647 146.103C83.775 146.103 83.999 146.103 84.319 146.103C84.671 146.071 85.023 146.055 85.375 146.055C85.759 146.023 86.111 146.007 86.431 146.007C86.751 145.975 86.975 145.943 87.103 145.911C87.103 145.719 87.119 145.399 87.151 144.951C87.215 144.471 87.263 143.943 87.295 143.367C87.359 142.759 87.423 142.103 87.487 141.399C87.551 140.695 87.615 140.007 87.679 139.335C87.807 137.703 87.967 135.943 88.159 134.055L88.447 129.879L87.727 129.927L86.623 134.055L83.647 146.103ZM94.3326 159.159C95.1966 154.903 96.0286 150.743 96.8286 146.679C97.1166 144.951 97.4366 143.159 97.7886 141.303C98.1406 139.415 98.4606 137.559 98.7486 135.735C99.0686 133.879 99.3566 132.103 99.6126 130.407C99.9006 128.679 100.125 127.111 100.285 125.703C102.109 125.127 104.077 124.711 106.189 124.455C108.301 124.167 110.397 124.023 112.477 124.023C113.725 124.023 114.749 124.167 115.549 124.455C116.381 124.743 117.021 125.159 117.469 125.703C117.949 126.215 118.285 126.823 118.477 127.527C118.669 128.231 118.765 129.015 118.765 129.879C118.765 131.159 118.541 132.423 118.093 133.671C117.645 134.887 117.037 136.055 116.269 137.175C115.533 138.263 114.669 139.271 113.677 140.199C112.717 141.095 111.677 141.831 110.557 142.407C111.133 143.687 111.741 145.095 112.381 146.631C113.053 148.135 113.677 149.575 114.253 150.951C114.893 152.551 115.549 154.151 116.221 155.751L108.781 158.343C108.141 156.295 107.565 154.375 107.053 152.583C106.829 151.847 106.605 151.095 106.381 150.327C106.157 149.527 105.949 148.775 105.757 148.071C105.565 147.367 105.405 146.743 105.277 146.199C105.149 145.623 105.069 145.159 105.037 144.807L104.413 144.999C104.221 146.023 103.981 147.223 103.693 148.599C103.437 149.975 103.197 151.303 102.973 152.583C102.685 154.087 102.397 155.607 102.109 157.143L94.3326 159.159ZM105.613 138.327C106.221 138.263 106.957 138.007 107.821 137.559C108.717 137.111 109.565 136.583 110.365 135.975C111.165 135.335 111.853 134.679 112.429 134.007C113.005 133.335 113.293 132.743 113.293 132.231C113.293 131.879 113.181 131.607 112.957 131.415C112.733 131.191 112.413 131.031 111.997 130.935C111.613 130.807 111.181 130.727 110.701 130.695C110.221 130.663 109.725 130.647 109.213 130.647C108.861 130.647 108.493 130.663 108.109 130.695C107.757 130.695 107.437 130.695 107.149 130.695L105.613 138.327ZM123.629 158.151C123.341 158.151 122.765 158.199 121.901 158.295C121.069 158.359 120.205 158.455 119.309 158.583C118.413 158.679 117.597 158.775 116.861 158.871C116.157 158.967 115.773 159.031 115.709 159.063C116.029 157.687 116.349 156.167 116.669 154.503C117.021 152.807 117.373 151.047 117.725 149.223C118.077 147.367 118.413 145.495 118.733 143.607C119.053 141.719 119.357 139.895 119.645 138.135C120.317 134.039 120.989 129.831 121.661 125.511L129.149 124.311C128.413 128.599 127.693 132.807 126.989 136.935C126.701 138.695 126.397 140.519 126.077 142.407C125.789 144.295 125.485 146.167 125.165 148.023C124.877 149.879 124.605 151.687 124.349 153.447C124.093 155.175 123.853 156.743 123.629 158.151ZM125.604 159.207C126.436 154.791 127.252 150.455 128.052 146.199C128.34 144.407 128.66 142.551 129.012 140.631C129.364 138.679 129.7 136.759 130.02 134.871C130.34 132.983 130.644 131.159 130.932 129.399C131.22 127.607 131.476 125.975 131.7 124.503L139.476 123.975C138.932 126.215 138.388 128.551 137.844 130.983C137.332 133.415 136.852 135.783 136.404 138.087L141.156 137.559C141.604 135.287 142.004 133.095 142.356 130.983C142.708 128.839 143.172 126.631 143.748 124.359C144.484 124.231 145.3 124.135 146.196 124.071C147.092 123.975 147.924 123.895 148.692 123.831C149.46 123.767 150.1 123.719 150.612 123.687C151.156 123.623 151.428 123.591 151.428 123.591C150.98 125.031 150.548 126.615 150.132 128.343C149.748 130.039 149.364 131.815 148.98 133.671C148.596 135.495 148.228 137.351 147.876 139.239C147.524 141.127 147.204 142.919 146.916 144.615C146.212 148.679 145.556 152.839 144.948 157.095L137.46 157.959C137.876 156.039 138.244 154.167 138.564 152.343C138.884 150.807 139.204 149.207 139.524 147.543C139.876 145.879 140.148 144.455 140.34 143.271L135.684 143.703C135.46 144.919 135.188 146.327 134.868 147.927C134.58 149.527 134.308 151.047 134.052 152.487C133.7 154.215 133.348 155.943 132.996 157.671L125.604 159.207ZM173.286 133.143C173.286 135.767 172.998 138.247 172.422 140.583C171.878 142.887 171.142 145.015 170.214 146.967C169.286 148.887 168.198 150.615 166.95 152.151C165.734 153.655 164.454 154.951 163.11 156.039C161.766 157.095 160.406 157.911 159.03 158.487C157.654 159.031 156.342 159.303 155.094 159.303C154.038 159.303 153.078 159.111 152.214 158.727C151.35 158.311 150.598 157.719 149.958 156.951C149.318 156.151 148.806 155.143 148.422 153.927C148.07 152.679 147.894 151.191 147.894 149.463C147.894 147.671 148.118 145.783 148.566 143.799C149.014 141.815 149.622 139.847 150.39 137.895C151.158 135.943 152.102 134.087 153.222 132.327C154.342 130.567 155.574 129.015 156.918 127.671C158.262 126.295 159.702 125.207 161.238 124.407C162.774 123.607 164.374 123.207 166.038 123.207C167.478 123.207 168.662 123.511 169.59 124.119C170.55 124.695 171.286 125.463 171.798 126.423C172.342 127.351 172.726 128.407 172.95 129.591C173.174 130.775 173.286 131.959 173.286 133.143ZM155.046 148.215C155.046 148.567 155.11 148.935 155.238 149.319C155.366 149.703 155.542 150.039 155.766 150.327C155.99 150.615 156.262 150.871 156.582 151.095C156.934 151.287 157.302 151.383 157.686 151.383C159.126 151.383 160.406 150.887 161.526 149.895C162.646 148.903 163.574 147.687 164.31 146.247C165.046 144.807 165.606 143.271 165.99 141.639C166.406 140.007 166.614 138.519 166.614 137.175C166.614 136.791 166.582 136.375 166.518 135.927C166.486 135.479 166.39 135.063 166.23 134.679C166.102 134.295 165.878 133.975 165.558 133.719C165.27 133.431 164.87 133.287 164.358 133.287C163.334 133.287 162.39 133.543 161.526 134.055C160.662 134.567 159.878 135.255 159.174 136.119C158.502 136.951 157.91 137.911 157.398 138.999C156.886 140.055 156.438 141.143 156.054 142.263C155.702 143.351 155.446 144.423 155.286 145.479C155.126 146.535 155.046 147.447 155.046 148.215ZM190.046 149.751C189.598 151.575 188.958 153.127 188.126 154.407C187.326 155.687 186.366 156.743 185.246 157.575C184.158 158.407 182.99 159.015 181.742 159.399C180.494 159.783 179.246 159.975 177.998 159.975C177.262 159.975 176.51 159.847 175.742 159.591C174.974 159.367 174.286 159.015 173.678 158.535C173.07 158.055 172.558 157.447 172.142 156.711C171.758 155.975 171.566 155.111 171.566 154.119C171.566 153.991 171.566 153.863 171.566 153.735C171.566 153.607 171.582 153.479 171.614 153.351C171.742 152.039 171.95 150.455 172.238 148.599C172.526 146.743 172.83 144.807 173.15 142.791C173.47 140.775 173.822 138.759 174.206 136.743C174.59 134.695 174.926 132.839 175.214 131.175C175.534 129.511 175.806 128.135 176.03 127.047C176.254 125.927 176.398 125.239 176.462 124.983C177.134 124.919 177.934 124.839 178.862 124.743C179.79 124.647 180.654 124.567 181.454 124.503C182.446 124.407 183.422 124.311 184.382 124.215C183.55 128.087 182.814 131.591 182.174 134.727C181.886 136.071 181.598 137.415 181.31 138.759C181.054 140.103 180.798 141.335 180.542 142.455C180.318 143.575 180.11 144.551 179.918 145.383C179.758 146.183 179.614 146.839 179.486 147.351C179.39 147.863 179.262 148.519 179.102 149.319C178.974 150.087 178.91 150.791 178.91 151.431C178.91 151.943 179.038 152.375 179.294 152.727C179.55 153.047 179.87 153.207 180.254 153.207C180.798 153.207 181.246 152.999 181.598 152.583C181.95 152.135 182.238 151.607 182.462 150.999C182.718 150.391 182.894 149.783 182.99 149.175C183.118 148.535 183.23 148.039 183.326 147.687C183.518 146.759 183.726 145.735 183.95 144.615C184.206 143.463 184.446 142.279 184.67 141.063C184.926 139.815 185.166 138.551 185.39 137.271C185.646 135.991 185.886 134.743 186.11 133.527C186.654 130.711 187.182 127.799 187.694 124.791L194.99 124.311C194.99 124.311 194.91 124.727 194.75 125.559C194.59 126.391 194.382 127.495 194.126 128.871C193.87 130.247 193.582 131.815 193.262 133.575C192.974 135.335 192.638 137.175 192.254 139.095C191.87 140.983 191.486 142.855 191.102 144.711C190.75 146.535 190.398 148.215 190.046 149.751ZM211.452 147.255C211.452 149.047 211.1 150.679 210.396 152.151C209.724 153.591 208.796 154.839 207.612 155.895C206.46 156.951 205.084 157.767 203.484 158.343C201.916 158.919 200.22 159.207 198.396 159.207C197.116 159.207 195.836 158.871 194.556 158.199C193.276 157.495 192.044 156.391 190.86 154.887L194.412 147.927C194.636 148.343 194.972 148.775 195.42 149.223C195.868 149.639 196.364 150.007 196.908 150.327C197.484 150.647 198.044 150.919 198.588 151.143C199.164 151.335 199.676 151.431 200.124 151.431C200.508 151.431 200.908 151.367 201.324 151.239C201.74 151.111 202.124 150.919 202.476 150.663C202.828 150.407 203.1 150.119 203.292 149.799C203.516 149.447 203.628 149.047 203.628 148.599C203.628 147.831 203.372 147.127 202.859 146.487C202.38 145.815 201.772 145.191 201.036 144.615C200.3 144.007 199.5 143.399 198.636 142.791C197.772 142.183 196.972 141.543 196.236 140.871C195.532 140.199 194.924 139.447 194.412 138.615C193.9 137.783 193.644 136.855 193.644 135.831C193.644 134.167 194.14 132.615 195.132 131.175C196.124 129.735 197.356 128.503 198.828 127.479C200.332 126.423 201.964 125.591 203.724 124.983C205.484 124.375 207.148 124.071 208.716 124.071C209.58 124.071 210.396 124.183 211.164 124.407C211.932 124.599 212.588 124.935 213.132 125.415C213.708 125.863 214.156 126.439 214.476 127.143C214.828 127.847 215.004 128.727 215.004 129.783C215.004 130.231 214.956 130.679 214.859 131.127C214.796 131.575 214.732 132.055 214.668 132.567L207.708 134.583C207.772 134.327 207.82 134.071 207.852 133.815C207.916 133.559 207.948 133.303 207.948 133.047C207.948 132.087 207.772 131.399 207.42 130.983C207.1 130.535 206.668 130.311 206.124 130.311C205.868 130.311 205.548 130.407 205.164 130.599C204.812 130.791 204.444 131.047 204.06 131.367C203.708 131.655 203.404 132.007 203.148 132.423C202.892 132.839 202.764 133.287 202.764 133.767C202.764 134.535 202.972 135.175 203.388 135.687C203.836 136.199 204.38 136.679 205.02 137.127C205.66 137.575 206.348 138.039 207.084 138.519C207.852 138.967 208.556 139.559 209.196 140.295C209.836 141.031 210.364 141.959 210.78 143.079C211.228 144.167 211.452 145.559 211.452 147.255ZM211.197 159.159L217.485 125.031L232.653 123.735C232.429 124.439 232.237 125.159 232.077 125.895C231.917 126.503 231.757 127.143 231.597 127.815C231.469 128.455 231.357 129.031 231.261 129.543C230.941 129.575 230.477 129.607 229.869 129.639C229.293 129.639 228.669 129.655 227.997 129.687C227.325 129.687 226.637 129.687 225.933 129.687C225.261 129.687 224.669 129.687 224.157 129.687L222.477 138.279C223.469 138.215 224.397 138.167 225.261 138.135C225.965 138.103 226.685 138.087 227.421 138.087C228.157 138.087 228.701 138.071 229.053 138.039C228.925 138.935 228.797 139.815 228.669 140.679C228.573 141.543 228.445 142.423 228.285 143.319C227.965 143.351 227.437 143.383 226.701 143.415C225.997 143.415 225.277 143.431 224.541 143.463C223.709 143.495 222.797 143.527 221.805 143.559L220.173 152.391L227.181 151.287L226.701 156.759L211.197 159.159Z" fill="black"/>
</g>
<defs>
<filter id="filter0_d_312_25" x="0.288002" y="123.111" width="236.365" height="45.152" filterUnits="userSpaceOnUse" color-interpolation-filters="sRGB">
<feFlood flood-opacity="0" result="BackgroundImageFix"/>
<feColorMatrix in="SourceAlpha" type="matrix" values="0 0 0 0 0 0 0 0 0 0 0 0 0 0 0 0 0 0 127 0" result="hardAlpha"/>
<feOffset dy="4"/>
<feGaussianBlur stdDeviation="2"/>
<feComposite in2="hardAlpha" operator="out"/>
<feColorMatrix type="matrix" values="0 0 0 0 0 0 0 0 0 0 0 0 0 0 0 0 0 0 0.25 0"/>
<feBlend mode="normal" in2="BackgroundImageFix" result="effect1_dropShadow_312_25"/>
<feBlend mode="normal" in="SourceGraphic" in2="effect1_dropShadow_312_25" result="shape"/>
</filter>
</defs>
</svg>
